<?xml version="1.0" encoding="UTF-8"?>
<!DOCTYPE svg PUBLIC "-//W3C//DTD SVG 1.1//EN" "http://www.w3.org/Graphics/SVG/1.1/DTD/svg11.dtd">
<svg xmlns="http://www.w3.org/2000/svg" version="1.1" width="1024px" height="1024px" style="shape-rendering:geometricPrecision; text-rendering:geometricPrecision; image-rendering:optimizeQuality; fill-rule:evenodd; clip-rule:evenodd" xmlns:xlink="http://www.w3.org/1999/xlink">
<g><path style="opacity:1" fill="#e00600" d="M -0.5,-0.5 C 340.833,-0.5 682.167,-0.5 1023.5,-0.5C 1023.5,340.833 1023.5,682.167 1023.5,1023.5C 682.167,1023.5 340.833,1023.5 -0.5,1023.5C -0.5,682.167 -0.5,340.833 -0.5,-0.5 Z"/></g>
<g><path style="opacity:1" fill="#fefefe" d="M 793.5,393.5 C 776.884,408.448 760.884,424.115 745.5,440.5C 735.553,448.778 726.22,457.778 717.5,467.5C 601.82,467.03 486.153,467.53 370.5,469C 341.324,471.256 316.991,483.09 297.5,504.5C 287.22,513.112 277.553,522.445 268.5,532.5C 256.552,542.78 245.219,553.78 234.5,565.5C 222.886,575.446 211.886,586.113 201.5,597.5C 197.43,600.06 193.764,603.227 190.5,607C 148.501,607.5 106.501,607.667 64.5,607.5C 69.4617,602.183 74.795,596.516 80.5,590.5C 95.5,576.167 110.167,561.5 124.5,546.5C 154.194,517.139 183.86,487.806 213.5,458.5C 219.5,453.167 225.167,447.5 230.5,441.5C 245.416,427.245 261.749,414.912 279.5,404.5C 283.362,402.738 287.028,400.738 290.5,398.5C 304.684,392.954 319.351,389.287 334.5,387.5C 344.731,385.675 355.064,384.675 365.5,384.5C 511.152,383.343 656.819,383.176 802.5,384C 799.296,387.036 796.296,390.203 793.5,393.5 Z"/></g>
<g><path style="opacity:1" fill="#fefefe" d="M 959.5,384.5 C 884.215,458.118 809.549,532.451 735.5,607.5C 689.165,607.667 642.832,607.5 596.5,607C 670.833,532.667 745.167,458.333 819.5,384C 866.335,383.168 913.002,383.335 959.5,384.5 Z"/></g>
<g><path style="opacity:1" fill="#b21409" d="M 365.5,384.5 C 355.064,384.675 344.731,385.675 334.5,387.5C 334.97,386.307 335.97,385.64 337.5,385.5C 346.954,383.731 356.288,383.398 365.5,384.5 Z"/></g>
<g><path style="opacity:1" fill="#b83125" d="M 290.5,398.5 C 287.028,400.738 283.362,402.738 279.5,404.5C 282.336,401.244 286.003,399.244 290.5,398.5 Z"/></g>
<g><path style="opacity:1" fill="#ba1109" d="M 793.5,393.5 C 778.116,409.885 762.116,425.552 745.5,440.5C 760.884,424.115 776.884,408.448 793.5,393.5 Z"/></g>
<g><path style="opacity:1" fill="#cf2720" d="M 230.5,441.5 C 225.167,447.5 219.5,453.167 213.5,458.5C 218.167,451.833 223.833,446.167 230.5,441.5 Z"/></g>
<g><path style="opacity:1" fill="#be1b11" d="M 745.5,440.5 C 736.78,450.222 727.447,459.222 717.5,467.5C 726.22,457.778 735.553,448.778 745.5,440.5 Z"/></g>
<g><path style="opacity:1" fill="#ac0701" d="M 703.5,480.5 C 599.665,480.167 495.999,480.501 392.5,481.5C 383.76,481.507 375.093,482.174 366.5,483.5C 366.611,482.883 366.944,482.383 367.5,482C 370.576,481.654 373.576,480.988 376.5,480C 485.667,479.167 594.667,479.334 703.5,480.5 Z"/></g>
<g><path style="opacity:1" fill="#fad5d4" d="M 392.5,481.5 C 495.999,480.501 599.665,480.167 703.5,480.5C 703.5,481.167 703.5,481.833 703.5,482.5C 703.167,482.5 702.833,482.5 702.5,482.5C 599.335,481.501 496.001,481.167 392.5,481.5 Z"/></g>
<g><path style="opacity:1" fill="#fffefe" d="M 392.5,481.5 C 496.001,481.167 599.335,481.501 702.5,482.5C 677.167,508.167 651.833,533.833 626.5,559.5C 550.166,559.333 473.833,559.5 397.5,560C 386.778,560.166 377.445,563.666 369.5,570.5C 356.219,582.114 343.552,594.447 331.5,607.5C 292.165,607.667 252.832,607.5 213.5,607C 247.861,572.305 282.528,537.972 317.5,504C 331.528,491.819 347.861,484.986 366.5,483.5C 375.093,482.174 383.76,481.507 392.5,481.5 Z"/></g>
<g><path style="opacity:1" fill="#be0500" d="M 702.5,482.5 C 702.833,482.5 703.167,482.5 703.5,482.5C 679.086,508.416 654.086,533.916 628.5,559C 627.906,559.464 627.239,559.631 626.5,559.5C 651.833,533.833 677.167,508.167 702.5,482.5 Z"/></g>
<g><path style="opacity:1" fill="#b91008" d="M 297.5,504.5 C 288.447,514.555 278.78,523.888 268.5,532.5C 277.553,522.445 287.22,513.112 297.5,504.5 Z"/></g>
<g><path style="opacity:1" fill="#bb130b" d="M 959.5,384.5 C 885.451,459.549 810.785,533.882 735.5,607.5C 809.549,532.451 884.215,458.118 959.5,384.5 Z"/></g>
<g><path style="opacity:1" fill="#ba0e07" d="M 268.5,532.5 C 257.781,544.22 246.448,555.22 234.5,565.5C 245.219,553.78 256.552,542.78 268.5,532.5 Z"/></g>
<g><path style="opacity:1" fill="#fef9f9" d="M 815.5,579.5 C 815.5,580.833 815.5,582.167 815.5,583.5C 812.5,583.5 809.5,583.5 806.5,583.5C 806.5,591.5 806.5,599.5 806.5,607.5C 804.833,607.5 803.167,607.5 801.5,607.5C 801.5,599.5 801.5,591.5 801.5,583.5C 798.5,583.5 795.5,583.5 792.5,583.5C 792.5,582.167 792.5,580.833 792.5,579.5C 800.167,579.5 807.833,579.5 815.5,579.5 Z"/></g>
<g><path style="opacity:1" fill="#fefbfb" d="M 818.5,579.5 C 820.833,579.5 823.167,579.5 825.5,579.5C 827.696,586.922 830.196,594.255 833,601.5C 834.477,597.57 835.644,593.57 836.5,589.5C 838.058,586.708 839.391,583.708 840.5,580.5C 842.743,579.526 845.076,579.192 847.5,579.5C 847.5,588.833 847.5,598.167 847.5,607.5C 845.833,607.5 844.167,607.5 842.5,607.5C 842.666,600.825 842.5,594.158 842,587.5C 839.993,592.02 838.493,596.687 837.5,601.5C 836.262,603.214 835.595,605.214 835.5,607.5C 833.114,607.741 831.114,607.075 829.5,605.5C 828.234,600.035 826.567,594.701 824.5,589.5C 824.013,588.527 823.513,587.527 823,586.5C 822.5,593.492 822.334,600.492 822.5,607.5C 821.167,607.5 819.833,607.5 818.5,607.5C 818.5,598.167 818.5,588.833 818.5,579.5 Z"/></g>
<g><path style="opacity:1" fill="#ca2019" d="M 124.5,546.5 C 110.167,561.5 95.5,576.167 80.5,590.5C 93.9116,575.586 107.912,561.086 122.5,547C 123.094,546.536 123.761,546.369 124.5,546.5 Z"/></g>
<g><path style="opacity:1" fill="#bb120a" d="M 234.5,565.5 C 224.114,576.887 213.114,587.554 201.5,597.5C 211.886,586.113 222.886,575.446 234.5,565.5 Z"/></g>
<g><path style="opacity:1" fill="#cc0d06" d="M 815.5,579.5 C 816.5,579.5 817.5,579.5 818.5,579.5C 818.5,588.833 818.5,598.167 818.5,607.5C 819.833,607.5 821.167,607.5 822.5,607.5C 820.777,608.807 818.943,608.807 817,607.5C 816.831,599.812 816.331,592.145 815.5,584.5C 813.253,585.374 810.92,585.708 808.5,585.5C 809.13,593.243 808.463,600.576 806.5,607.5C 806.5,599.5 806.5,591.5 806.5,583.5C 809.5,583.5 812.5,583.5 815.5,583.5C 815.5,582.167 815.5,580.833 815.5,579.5 Z"/></g>
<g><path style="opacity:1" fill="#bc1e14" d="M 825.5,579.5 C 828.051,583.785 830.051,588.452 831.5,593.5C 832.325,594.386 833.325,594.719 834.5,594.5C 834.402,592.447 835.069,590.78 836.5,589.5C 835.644,593.57 834.477,597.57 833,601.5C 830.196,594.255 827.696,586.922 825.5,579.5 Z"/></g>
<g><path style="opacity:1" fill="#ba0601" d="M 369.5,570.5 C 357.448,583.553 344.781,595.886 331.5,607.5C 343.552,594.447 356.219,582.114 369.5,570.5 Z"/></g>
<g><path style="opacity:1" fill="#ec6763" d="M 824.5,589.5 C 823.51,595.31 823.177,601.31 823.5,607.5C 823.167,607.5 822.833,607.5 822.5,607.5C 822.334,600.492 822.5,593.492 823,586.5C 823.513,587.527 824.013,588.527 824.5,589.5 Z"/></g>
<g><path style="opacity:1" fill="#b60f06" d="M 824.5,589.5 C 826.567,594.701 828.234,600.035 829.5,605.5C 827.732,602.394 826.232,599.061 825,595.5C 824.824,599.688 824.324,603.688 823.5,607.5C 823.177,601.31 823.51,595.31 824.5,589.5 Z"/></g>
<g><path style="opacity:1" fill="#a30e06" d="M 842.5,607.5 C 841.674,603.018 841.174,598.351 841,593.5C 840.295,596.476 839.129,599.142 837.5,601.5C 838.493,596.687 839.993,592.02 842,587.5C 842.5,594.158 842.666,600.825 842.5,607.5 Z"/></g>
<g><path style="opacity:1" fill="#9a0803" d="M 201.5,597.5 C 198.371,601.131 195.037,604.631 191.5,608C 148.998,608.831 106.665,608.665 64.5,607.5C 106.501,607.667 148.501,607.5 190.5,607C 193.764,603.227 197.43,600.06 201.5,597.5 Z"/></g>
</svg>
